<svg width="1440" height="25" viewBox="0 0 1440 25" fill="none" xmlns="http://www.w3.org/2000/svg">
<g clip-path="url(#clip0_1942_424)">
<path d="M41.827 25H49.883L24.9415 0L0 25H8.05602L24.9415 8.07492L41.827 25Z" fill="#2F3947"/>
<path d="M24.9411 15.1345L15.0986 25H34.7767L24.9411 15.1345Z" fill="#2F3947"/>
<path d="M71.7377 25L88.6231 8.07492L105.515 25H113.565L88.6231 0L63.6885 25H71.7377Z" fill="#2F3947"/>
<path d="M81.7238 0H31.8408L56.7823 25L81.7238 0Z" fill="#2F3947"/>
<path d="M78.7871 25H98.4652L88.6227 15.1345L78.7871 25Z" fill="#2F3947"/>
<path d="M135.426 25L152.312 8.07492L169.197 25H177.253L152.312 0L127.37 25H135.426Z" fill="#2F3947"/>
<path d="M145.412 0H95.5293L120.471 25L145.412 0Z" fill="#2F3947"/>
<path d="M142.476 25H162.154L152.311 15.1345L142.476 25Z" fill="#2F3947"/>
<path d="M199.115 25L216 8.07492L232.886 25H240.942L216 0L191.059 25H199.115Z" fill="#2F3947"/>
<path d="M209.094 0H159.218L184.159 25L209.094 0Z" fill="#2F3947"/>
<path d="M206.157 25H225.835L216 15.1345L206.157 25Z" fill="#2F3947"/>
<path d="M262.796 25L279.689 8.07492L296.574 25H304.623L279.689 0L254.747 25H262.796Z" fill="#2F3947"/>
<path d="M272.782 0H222.899L247.841 25L272.782 0Z" fill="#2F3947"/>
<path d="M269.846 25H289.524L279.688 15.1345L269.846 25Z" fill="#2F3947"/>
<path d="M326.485 25L343.37 8.07492L360.256 25H368.312L343.37 0L318.429 25H326.485Z" fill="#2F3947"/>
<path d="M336.471 0H286.588L311.529 25L336.471 0Z" fill="#2F3947"/>
<path d="M333.534 25.0001H353.212L343.37 15.1345L333.534 25.0001Z" fill="#2F3947"/>
<path d="M390.173 25L407.059 8.07492L423.944 25H432L407.059 0L382.117 25H390.173Z" fill="#2F3947"/>
<path d="M400.153 0H350.276L375.218 25L400.153 0Z" fill="#2F3947"/>
<path d="M397.216 25H416.894L407.058 15.1345L397.216 25Z" fill="#2F3947"/>
</g>
<g clip-path="url(#clip1_1942_424)">
<path d="M454.738 25L471.623 8.07492L488.515 25H496.565L471.623 0L446.688 25H454.738Z" fill="#2F3947"/>
<path d="M464.724 0H414.841L439.782 25L464.724 0Z" fill="#2F3947"/>
<path d="M461.787 25H481.465L471.623 15.1345L461.787 25Z" fill="#2F3947"/>
<path d="M518.426 25L535.312 8.07492L552.197 25H560.253L535.312 0L510.37 25H518.426Z" fill="#2F3947"/>
<path d="M528.412 0H478.529L503.471 25L528.412 0Z" fill="#2F3947"/>
<path d="M525.476 25H545.154L535.311 15.1345L525.476 25Z" fill="#2F3947"/>
<path d="M582.115 25L599 8.07492L615.886 25H623.942L599 0L574.059 25H582.115Z" fill="#2F3947"/>
<path d="M592.094 0H542.218L567.159 25L592.094 0Z" fill="#2F3947"/>
<path d="M589.157 25H608.835L599 15.1345L589.157 25Z" fill="#2F3947"/>
<path d="M645.796 25L662.689 8.07492L679.574 25H687.623L662.689 0L637.747 25H645.796Z" fill="#2F3947"/>
<path d="M655.782 0H605.899L630.841 25L655.782 0Z" fill="#2F3947"/>
<path d="M652.846 25H672.524L662.688 15.1345L652.846 25Z" fill="#2F3947"/>
<path d="M709.485 25L726.37 8.07492L743.256 25H751.312L726.37 0L701.429 25H709.485Z" fill="#2F3947"/>
<path d="M719.471 0H669.588L694.529 25L719.471 0Z" fill="#2F3947"/>
<path d="M716.534 25.0001H736.212L726.37 15.1345L716.534 25.0001Z" fill="#2F3947"/>
<path d="M773.173 25L790.059 8.07492L806.944 25H815L790.059 0L765.117 25H773.173Z" fill="#2F3947"/>
<path d="M783.153 0H733.276L758.218 25L783.153 0Z" fill="#2F3947"/>
<path d="M780.216 25H799.894L790.058 15.1345L780.216 25Z" fill="#2F3947"/>
</g>
<g clip-path="url(#clip2_1942_424)">
<path d="M836.738 25L853.623 8.07492L870.515 25H878.565L853.623 0L828.688 25H836.738Z" fill="#2F3947"/>
<path d="M846.724 0H796.841L821.782 25L846.724 0Z" fill="#2F3947"/>
<path d="M843.787 25H863.465L853.623 15.1345L843.787 25Z" fill="#2F3947"/>
<path d="M900.426 25L917.312 8.07492L934.197 25H942.253L917.312 0L892.37 25H900.426Z" fill="#2F3947"/>
<path d="M910.412 0H860.529L885.471 25L910.412 0Z" fill="#2F3947"/>
<path d="M907.476 25H927.154L917.311 15.1345L907.476 25Z" fill="#2F3947"/>
<path d="M964.115 25L981 8.07492L997.886 25H1005.94L981 0L956.059 25H964.115Z" fill="#2F3947"/>
<path d="M974.094 0H924.218L949.159 25L974.094 0Z" fill="#2F3947"/>
<path d="M971.157 25H990.835L981 15.1345L971.157 25Z" fill="#2F3947"/>
<path d="M1027.8 25L1044.69 8.07492L1061.57 25H1069.62L1044.69 0L1019.75 25H1027.8Z" fill="#2F3947"/>
<path d="M1037.78 0H987.899L1012.84 25L1037.78 0Z" fill="#2F3947"/>
<path d="M1034.85 25H1054.52L1044.69 15.1345L1034.85 25Z" fill="#2F3947"/>
<path d="M1091.48 25L1108.37 8.07492L1125.26 25H1133.31L1108.37 0L1083.43 25H1091.48Z" fill="#2F3947"/>
<path d="M1101.47 0H1051.59L1076.53 25L1101.47 0Z" fill="#2F3947"/>
<path d="M1098.53 25.0001H1118.21L1108.37 15.1345L1098.53 25.0001Z" fill="#2F3947"/>
<path d="M1155.17 25L1172.06 8.07492L1188.94 25H1197L1172.06 0L1147.12 25H1155.17Z" fill="#2F3947"/>
<path d="M1165.15 0H1115.28L1140.22 25L1165.15 0Z" fill="#2F3947"/>
<path d="M1162.22 25H1181.89L1172.06 15.1345L1162.22 25Z" fill="#2F3947"/>
</g>
<g clip-path="url(#clip3_1942_424)">
<path d="M1217.74 25L1234.62 8.07492L1251.52 25H1259.56L1234.62 0L1209.69 25H1217.74Z" fill="#2F3947"/>
<path d="M1227.72 0H1177.84L1202.78 25L1227.72 0Z" fill="#2F3947"/>
<path d="M1224.79 25.0001H1244.47L1234.62 15.1345L1224.79 25.0001Z" fill="#2F3947"/>
<path d="M1281.43 25L1298.31 8.07492L1315.2 25H1323.25L1298.31 0L1273.37 25H1281.43Z" fill="#2F3947"/>
<path d="M1291.41 0H1241.53L1266.47 25L1291.41 0Z" fill="#2F3947"/>
<path d="M1288.48 25.0001H1308.15L1298.31 15.1345L1288.48 25.0001Z" fill="#2F3947"/>
<path d="M1345.11 25L1362 8.07492L1378.89 25H1386.94L1362 0L1337.06 25H1345.11Z" fill="#2F3947"/>
<path d="M1355.09 0H1305.22L1330.16 25L1355.09 0Z" fill="#2F3947"/>
<path d="M1352.16 25.0001H1371.84L1362 15.1345L1352.16 25.0001Z" fill="#2F3947"/>
<path d="M1408.8 25L1425.69 8.07492L1442.57 25H1450.62L1425.69 0L1400.75 25H1408.8Z" fill="#2F3947"/>
<path d="M1418.78 0H1368.9L1393.84 25L1418.78 0Z" fill="#2F3947"/>
<path d="M1415.85 25.0001H1435.52L1425.69 15.1345L1415.85 25.0001Z" fill="#2F3947"/>
</g>
<defs>
<clipPath id="clip0_1942_424">
<rect width="432" height="25" fill="white"/>
</clipPath>
<clipPath id="clip1_1942_424">
<rect width="432" height="25" fill="white" transform="translate(383)"/>
</clipPath>
<clipPath id="clip2_1942_424">
<rect width="432" height="25" fill="white" transform="translate(765)"/>
</clipPath>
<clipPath id="clip3_1942_424">
<rect width="270" height="25" fill="white" transform="translate(1178)"/>
</clipPath>
</defs>
</svg>
