<svg width="1269" height="40" viewBox="0 0 1269 40" fill="none" xmlns="http://www.w3.org/2000/svg">
<g clip-path="url(#clip0_269_31)">
<path d="M41.827 31H49.883L24.9415 6L0 31H8.05602L24.9415 14.0749L41.827 31Z" fill="#2F3947"/>
<path d="M24.9416 21.1345L15.0991 31.0001H34.7772L24.9416 21.1345Z" fill="#2F3947"/>
<path d="M71.7377 31L88.6231 14.0749L105.515 31H113.565L88.6231 6L63.6885 31H71.7377Z" fill="#2F3947"/>
<path d="M81.7238 6H31.8408L56.7823 31L81.7238 6Z" fill="#2F3947"/>
<path d="M78.7876 31.0001H98.4657L88.6232 21.1345L78.7876 31.0001Z" fill="#2F3947"/>
<path d="M135.426 31L152.312 14.0749L169.197 31H177.253L152.312 6L127.37 31H135.426Z" fill="#2F3947"/>
<path d="M145.412 6H95.5293L120.471 31L145.412 6Z" fill="#2F3947"/>
<path d="M142.476 31.0001H162.154L152.312 21.1345L142.476 31.0001Z" fill="#2F3947"/>
<path d="M199.115 31L216 14.0749L232.886 31H240.942L216 6L191.059 31H199.115Z" fill="#2F3947"/>
<path d="M209.094 6H159.218L184.159 31L209.094 6Z" fill="#2F3947"/>
<path d="M206.158 31.0001H225.836L216 21.1345L206.158 31.0001Z" fill="#2F3947"/>
<path d="M262.796 31L279.689 14.0749L296.574 31H304.623L279.689 6L254.747 31H262.796Z" fill="#2F3947"/>
<path d="M272.782 6H222.899L247.841 31L272.782 6Z" fill="#2F3947"/>
<path d="M269.846 31.0001H289.524L279.689 21.1345L269.846 31.0001Z" fill="#2F3947"/>
<path d="M326.485 31L343.37 14.0749L360.256 31H368.312L343.37 6L318.429 31H326.485Z" fill="#2F3947"/>
<path d="M336.471 6H286.588L311.529 31L336.471 6Z" fill="#2F3947"/>
<path d="M333.534 31.0001H353.212L343.37 21.1345L333.534 31.0001Z" fill="#2F3947"/>
<path d="M390.173 31L407.059 14.0749L423.944 31H432L407.059 6L382.117 31H390.173Z" fill="#2F3947"/>
<path d="M400.153 6H350.276L375.218 31L400.153 6Z" fill="#2F3947"/>
<path d="M397.216 31.0001H416.894L407.059 21.1345L397.216 31.0001Z" fill="#2F3947"/>
</g>
<g clip-path="url(#clip1_269_31)">
<path d="M878.827 31H886.883L861.942 6L837 31H845.056L861.942 14.0749L878.827 31Z" fill="#2F3947"/>
<path d="M861.942 21.1345L852.099 31.0001H871.777L861.942 21.1345Z" fill="#2F3947"/>
<path d="M908.738 31L925.623 14.0749L942.515 31H950.565L925.623 6L900.688 31H908.738Z" fill="#2F3947"/>
<path d="M918.724 6H868.841L893.782 31L918.724 6Z" fill="#2F3947"/>
<path d="M915.788 31.0001H935.466L925.623 21.1345L915.788 31.0001Z" fill="#2F3947"/>
<path d="M972.426 31L989.312 14.0749L1006.2 31H1014.25L989.312 6L964.37 31H972.426Z" fill="#2F3947"/>
<path d="M982.412 6H932.529L957.471 31L982.412 6Z" fill="#2F3947"/>
<path d="M979.476 31.0001H999.154L989.312 21.1345L979.476 31.0001Z" fill="#2F3947"/>
<path d="M1036.11 31L1053 14.0749L1069.89 31H1077.94L1053 6L1028.06 31H1036.11Z" fill="#2F3947"/>
<path d="M1046.09 6H996.218L1021.16 31L1046.09 6Z" fill="#2F3947"/>
<path d="M1043.16 31.0001H1062.84L1053 21.1345L1043.16 31.0001Z" fill="#2F3947"/>
<path d="M1099.8 31L1116.69 14.0749L1133.57 31H1141.62L1116.69 6L1091.75 31H1099.8Z" fill="#2F3947"/>
<path d="M1109.78 6H1059.9L1084.84 31L1109.78 6Z" fill="#2F3947"/>
<path d="M1106.85 31.0001H1126.52L1116.69 21.1345L1106.85 31.0001Z" fill="#2F3947"/>
<path d="M1163.48 31L1180.37 14.0749L1197.26 31H1205.31L1180.37 6L1155.43 31H1163.48Z" fill="#2F3947"/>
<path d="M1173.47 6H1123.59L1148.53 31L1173.47 6Z" fill="#2F3947"/>
<path d="M1170.53 31.0001H1190.21L1180.37 21.1345L1170.53 31.0001Z" fill="#2F3947"/>
<path d="M1227.17 31L1244.06 14.0749L1260.94 31H1269L1244.06 6L1219.12 31H1227.17Z" fill="#2F3947"/>
<path d="M1237.15 6H1187.28L1212.22 31L1237.15 6Z" fill="#2F3947"/>
<path d="M1234.22 31.0001H1253.89L1244.06 21.1345L1234.22 31.0001Z" fill="#2F3947"/>
</g>
<path d="M623.328 16.9609C624.191 15.9792 625.105 14.9635 626.07 13.9141C627.035 12.8477 628.034 11.7982 629.066 10.7656C630.116 9.71615 631.199 8.69206 632.316 7.69336C633.451 6.69466 634.618 5.77214 635.82 4.92578C635.245 4.85807 634.669 4.7819 634.094 4.69727C633.518 4.61263 632.875 4.53646 632.164 4.46875C631.453 4.38411 630.641 4.32487 629.727 4.29102C628.812 4.24023 627.729 4.21484 626.477 4.21484C624.327 4.21484 622.338 4.46029 620.51 4.95117C618.682 5.44206 617.099 6.0599 615.762 6.80469C614.424 7.54948 613.375 8.36198 612.613 9.24219C611.868 10.1224 611.496 10.9518 611.496 11.7305C611.496 12.0521 611.555 12.3568 611.674 12.6445C611.792 12.9154 611.995 13.1608 612.283 13.3809C612.588 13.584 612.977 13.7533 613.451 13.8887C613.942 14.0072 614.56 14.0664 615.305 14.0664C615.897 14.0664 616.481 13.9818 617.057 13.8125C617.649 13.6263 618.216 13.3893 618.758 13.1016C619.316 12.7969 619.85 12.4583 620.357 12.0859C620.865 11.6966 621.339 11.2988 621.779 10.8926C622.812 9.96159 623.785 8.90365 624.699 7.71875L625.055 8.37891C624.395 9.95312 623.65 11.2311 622.82 12.2129C622.008 13.1947 621.17 13.9564 620.307 14.498C619.443 15.0397 618.572 15.4121 617.691 15.6152C616.828 15.8014 616.016 15.8945 615.254 15.8945C614.661 15.8945 614.061 15.8353 613.451 15.7168C612.859 15.5814 612.317 15.3529 611.826 15.0312C611.352 14.7096 610.963 14.278 610.658 13.7363C610.37 13.1947 610.227 12.5091 610.227 11.6797C610.227 10.8672 610.48 10.0632 610.988 9.26758C611.513 8.45508 612.207 7.67643 613.07 6.93164C613.951 6.18685 614.966 5.49284 616.117 4.84961C617.268 4.20638 618.479 3.64779 619.748 3.17383C621.035 2.68294 622.338 2.30208 623.658 2.03125C624.995 1.76042 626.273 1.625 627.492 1.625C628.169 1.625 628.906 1.67578 629.701 1.77734C630.497 1.86198 631.36 1.98047 632.291 2.13281C633.222 2.26823 634.229 2.42057 635.312 2.58984C636.396 2.75911 637.564 2.91146 638.816 3.04688C639.629 2.58984 640.45 2.18359 641.279 1.82812C642.126 1.45573 642.98 1.15104 643.844 0.914062L644.25 1.57422C643.759 1.86198 643.294 2.14974 642.854 2.4375C642.43 2.70833 641.999 2.99609 641.559 3.30078C642.422 3.35156 643.327 3.40234 644.275 3.45312C645.24 3.48698 646.247 3.50391 647.297 3.50391C647.957 3.50391 648.609 3.49544 649.252 3.47852C649.912 3.46159 650.547 3.4362 651.156 3.40234L650.496 4.31641C648.803 4.62109 647.128 4.84115 645.469 4.97656C643.81 5.11198 642.134 5.17969 640.441 5.17969H639.07C638.089 5.97526 637.166 6.79622 636.303 7.64258C635.456 8.47201 634.652 9.29297 633.891 10.1055C633.129 10.918 632.41 11.7051 631.732 12.4668C631.072 13.2285 630.438 13.9479 629.828 14.625C629.32 15.2005 628.728 15.8776 628.051 16.6562C627.374 17.4349 626.637 18.2812 625.842 19.1953C625.046 20.0924 624.217 21.0319 623.354 22.0137C622.49 22.9954 621.618 23.9857 620.738 24.9844C619.875 25.9661 619.012 26.931 618.148 27.8789C617.285 28.8099 616.473 29.6732 615.711 30.4688C614.526 31.7044 613.316 32.8385 612.08 33.8711C610.844 34.9036 609.558 35.8008 608.221 36.5625C606.883 37.3073 605.495 37.8913 604.057 38.3145C602.618 38.7376 601.103 38.9492 599.512 38.9492C597.667 38.9492 596.236 38.5938 595.221 37.8828C594.222 37.1719 593.723 36.2409 593.723 35.0898C593.723 34.6667 593.79 34.235 593.926 33.7949C594.061 33.3379 594.264 32.9316 594.535 32.5762C594.823 32.2038 595.17 31.9076 595.576 31.6875C595.999 31.4505 596.482 31.332 597.023 31.332C597.633 31.332 598.107 31.4928 598.445 31.8145C598.784 32.1361 598.953 32.6016 598.953 33.2109C598.953 33.7695 598.818 34.2266 598.547 34.582C598.293 34.9206 598.014 35.2083 597.709 35.4453C597.404 35.6823 597.117 35.9023 596.846 36.1055C596.592 36.2917 596.465 36.5117 596.465 36.7656C596.465 37.1211 596.668 37.3919 597.074 37.5781C597.48 37.7474 598.039 37.832 598.75 37.832C600.104 37.832 601.365 37.6289 602.533 37.2227C603.701 36.8164 604.818 36.2493 605.885 35.5215C606.951 34.7936 607.992 33.9219 609.008 32.9062C610.04 31.8906 611.09 30.7734 612.156 29.5547C613.798 27.6927 615.567 25.6953 617.463 23.5625C619.376 21.4297 621.331 19.2292 623.328 16.9609ZM652.98 27.8281C651.626 28.793 650.34 29.8171 649.121 30.9004C647.919 31.9837 646.734 33.1094 645.566 34.2773C645.279 34.6159 644.965 34.9714 644.627 35.3438C644.288 35.7161 643.95 36.0801 643.611 36.4355C643.29 36.791 642.968 37.138 642.646 37.4766C642.325 37.7982 642.029 38.069 641.758 38.2891C641.555 38.4922 641.368 38.653 641.199 38.7715C641.03 38.89 640.827 38.9492 640.59 38.9492C640.505 38.9492 640.412 38.9492 640.311 38.9492C640.226 38.9323 640.116 38.8984 639.98 38.8477C639.676 38.7461 639.413 38.6107 639.193 38.4414C638.973 38.2552 638.863 38.0352 638.863 37.7812C638.863 37.6797 638.889 37.5612 638.939 37.4258C638.99 37.2904 639.066 37.1549 639.168 37.0195L649.426 25.2891C650.255 24.3411 651.144 23.3509 652.092 22.3184C653.057 21.2858 654.047 20.2279 655.062 19.1445C656.078 18.0612 657.102 16.9694 658.135 15.8691C659.184 14.752 660.225 13.6432 661.258 12.543C661.596 12.1706 662.045 11.7135 662.604 11.1719C663.162 10.6302 663.78 10.0632 664.457 9.4707C665.134 8.86133 665.845 8.26042 666.59 7.66797C667.352 7.07552 668.096 6.54232 668.824 6.06836C669.569 5.5944 670.271 5.21354 670.932 4.92578C671.609 4.62109 672.21 4.46875 672.734 4.46875C673.428 4.46875 673.911 4.63802 674.182 4.97656C674.469 5.3151 674.613 5.75521 674.613 6.29688C674.596 6.83854 674.351 7.50716 673.877 8.30273C673.42 9.08138 672.827 9.91927 672.1 10.8164C671.372 11.6966 670.559 12.5938 669.662 13.5078C668.765 14.4219 667.876 15.2767 666.996 16.0723C666.133 16.8678 665.329 17.5788 664.584 18.2051C663.839 18.8314 663.255 19.2969 662.832 19.6016C662.121 20.1263 661.402 20.6172 660.674 21.0742C659.963 21.5312 659.235 21.9883 658.49 22.4453C657.762 22.9023 657.001 23.3848 656.205 23.8926C655.426 24.4004 654.622 24.9674 653.793 25.5938C653.59 25.8815 653.395 26.1523 653.209 26.4062C653.023 26.6602 652.828 26.9141 652.625 27.168C652.879 26.9479 653.26 26.6517 653.768 26.2793C654.292 25.9069 654.893 25.543 655.57 25.1875C656.264 24.8151 657.009 24.4935 657.805 24.2227C658.6 23.9518 659.396 23.8164 660.191 23.8164C661.275 23.8164 662.011 23.9772 662.4 24.2988C662.79 24.6035 662.984 25.0352 662.984 25.5938C662.984 26.237 662.798 26.9056 662.426 27.5996C662.053 28.2767 661.588 28.9538 661.029 29.6309C660.488 30.3079 659.895 30.9766 659.252 31.6367C658.626 32.2799 658.033 32.8978 657.475 33.4902C656.933 34.0827 656.476 34.6413 656.104 35.166C655.748 35.6738 655.57 36.1224 655.57 36.5117C655.57 36.7487 655.613 36.9434 655.697 37.0957C655.782 37.2311 655.883 37.3411 656.002 37.4258C656.137 37.4935 656.281 37.5358 656.434 37.5527C656.603 37.5697 656.772 37.5781 656.941 37.5781C657.906 37.5781 658.863 37.485 659.811 37.2988C660.758 37.1126 661.689 36.8672 662.604 36.5625C663.535 36.2578 664.449 35.9108 665.346 35.5215C666.243 35.1152 667.115 34.7005 667.961 34.2773L668.215 34.8867C667.656 35.2591 666.886 35.6823 665.904 36.1562C664.923 36.6302 663.822 37.0788 662.604 37.502C661.385 37.9251 660.081 38.2806 658.693 38.5684C657.322 38.8561 655.96 39 654.605 39C653.81 39 653.167 38.8053 652.676 38.416C652.202 38.0267 651.965 37.4089 651.965 36.5625C651.965 36.1562 652.1 35.6823 652.371 35.1406C652.642 34.599 652.989 34.0404 653.412 33.4648C653.852 32.8724 654.335 32.2715 654.859 31.6621C655.401 31.0527 655.926 30.4688 656.434 29.9102C656.958 29.3516 657.449 28.8353 657.906 28.3613C658.363 27.8704 658.736 27.4557 659.023 27.1172C659.125 26.9648 659.269 26.7702 659.455 26.5332C659.641 26.2793 659.734 26.0508 659.734 25.8477C659.734 25.7122 659.675 25.6022 659.557 25.5176C659.455 25.4329 659.277 25.3906 659.023 25.3906C658.499 25.3906 657.991 25.4499 657.5 25.5684C657.026 25.6699 656.544 25.8223 656.053 26.0254C655.579 26.2285 655.088 26.4824 654.58 26.7871C654.072 27.0918 653.539 27.4388 652.98 27.8281ZM665.574 12.4414C663.983 14.0326 662.367 15.6999 660.725 17.4434C659.1 19.1699 657.517 20.9557 655.977 22.8008C656.704 22.3268 657.441 21.8613 658.186 21.4043C658.93 20.9473 659.684 20.4648 660.445 19.957C661.207 19.4492 661.986 18.8991 662.781 18.3066C663.594 17.7142 664.44 17.0286 665.32 16.25C666.15 15.5221 666.996 14.735 667.859 13.8887C668.723 13.0423 669.501 12.2214 670.195 11.4258C670.906 10.6133 671.482 9.86003 671.922 9.16602C672.362 8.47201 672.582 7.90495 672.582 7.46484C672.582 7.22786 672.464 7.10938 672.227 7.10938C671.888 7.10938 671.465 7.27865 670.957 7.61719C670.449 7.9388 669.891 8.36198 669.281 8.88672C668.689 9.39453 668.071 9.97005 667.428 10.6133C666.785 11.2396 666.167 11.849 665.574 12.4414ZM694.82 34.9375C692.654 35.9362 690.842 36.7148 689.387 37.2734C687.931 37.832 686.687 38.2552 685.654 38.543C684.639 38.8138 683.758 38.9831 683.014 39.0508C682.269 39.1185 681.516 39.1523 680.754 39.1523C680.161 39.1523 679.594 39.0762 679.053 38.9238C678.528 38.7715 678.062 38.5345 677.656 38.2129C677.25 37.8913 676.928 37.4766 676.691 36.9688C676.454 36.4609 676.336 35.8516 676.336 35.1406C676.336 34.3281 676.505 33.4902 676.844 32.627C677.199 31.7467 677.682 30.8919 678.291 30.0625C678.9 29.2161 679.611 28.4206 680.424 27.6758C681.253 26.931 682.15 26.2793 683.115 25.7207C684.08 25.1452 685.087 24.6966 686.137 24.375C687.203 24.0365 688.27 23.8672 689.336 23.8672C689.708 23.8672 690.148 23.901 690.656 23.9688C691.164 24.0365 691.646 24.1719 692.104 24.375C692.561 24.5612 692.95 24.8236 693.271 25.1621C693.593 25.5007 693.754 25.9323 693.754 26.457C693.754 26.931 693.534 27.4219 693.094 27.9297C692.654 28.4375 692.061 28.9538 691.316 29.4785C690.589 29.9863 689.742 30.4941 688.777 31.002C687.812 31.5098 686.814 32.0007 685.781 32.4746C684.766 32.9316 683.742 33.3633 682.709 33.7695C681.676 34.1758 680.72 34.5312 679.84 34.8359C679.806 34.9714 679.789 35.1068 679.789 35.2422C679.789 35.3776 679.789 35.513 679.789 35.6484C679.789 36.2917 680.001 36.8249 680.424 37.248C680.847 37.6712 681.431 37.8828 682.176 37.8828C682.836 37.8828 683.488 37.8574 684.131 37.8066C684.774 37.7559 685.544 37.6204 686.441 37.4004C687.339 37.1634 688.43 36.8079 689.717 36.334C691.003 35.8431 692.62 35.1745 694.566 34.3281L694.82 34.9375ZM688.98 25.4414C688.54 25.4414 688.049 25.5684 687.508 25.8223C686.966 26.0592 686.399 26.3893 685.807 26.8125C685.214 27.2188 684.622 27.7012 684.029 28.2598C683.454 28.8184 682.904 29.4193 682.379 30.0625C681.871 30.6888 681.414 31.3405 681.008 32.0176C680.602 32.6777 680.297 33.3294 680.094 33.9727C680.839 33.7018 681.609 33.4056 682.404 33.084C683.217 32.7624 684.004 32.4238 684.766 32.0684C685.544 31.7129 686.281 31.3405 686.975 30.9512C687.669 30.5449 688.278 30.1217 688.803 29.6816C689.327 29.2415 689.742 28.793 690.047 28.3359C690.352 27.862 690.504 27.3711 690.504 26.8633C690.504 26.457 690.394 26.1185 690.174 25.8477C689.971 25.5768 689.573 25.4414 688.98 25.4414Z" fill="black"/>
<defs>
<clipPath id="clip0_269_31">
<rect width="432" height="25" fill="white" transform="translate(0 6)"/>
</clipPath>
<clipPath id="clip1_269_31">
<rect width="432" height="25" fill="white" transform="translate(837 6)"/>
</clipPath>
</defs>
</svg>
