<svg width="24" height="25" viewBox="0 0 24 25" fill="none" xmlns="http://www.w3.org/2000/svg">
<g clip-path="url(#clip0_1942_277)">
<path d="M15.4996 14.4201H14.7096L14.4296 14.1501C15.6296 12.7501 16.2496 10.8401 15.9096 8.81006C15.4396 6.03006 13.1196 3.81006 10.3196 3.47006C6.08965 2.95006 2.52965 6.51006 3.04965 10.7401C3.38965 13.5401 5.60965 15.8601 8.38965 16.3301C10.4196 16.6701 12.3296 16.0501 13.7296 14.8501L13.9996 15.1301V15.9201L18.2496 20.1701C18.6596 20.5801 19.3296 20.5801 19.7396 20.1701C20.1496 19.7601 20.1496 19.0901 19.7396 18.6801L15.4996 14.4201ZM9.49965 14.4201C7.00965 14.4201 4.99965 12.4101 4.99965 9.92006C4.99965 7.43006 7.00965 5.42006 9.49965 5.42006C11.9896 5.42006 13.9996 7.43006 13.9996 9.92006C13.9996 12.4101 11.9896 14.4201 9.49965 14.4201Z" fill="#323232"/>
</g>
<defs>
<clipPath id="clip0_1942_277">
<rect width="24" height="24" fill="white" transform="translate(0 0.420044)"/>
</clipPath>
</defs>
</svg>
